<?xml version="1.0" encoding="utf-8"?>
<!-- Generator: Adobe Illustrator 16.0.0, SVG Export Plug-In . SVG Version: 6.00 Build 0)  -->
<!DOCTYPE svg PUBLIC "-//W3C//DTD SVG 1.1//EN" "http://www.w3.org/Graphics/SVG/1.1/DTD/svg11.dtd">
<svg version="1.1" id="Layer_1" xmlns="http://www.w3.org/2000/svg" xmlns:xlink="http://www.w3.org/1999/xlink" x="0px" y="0px"
	 width="400px" height="1200px" viewBox="0 0 400 1200" enable-background="new 0 0 400 1200" xml:space="preserve">
<path id="swoop" fill="none" stroke="#231F20" stroke-miterlimit="10" d="M200,0c0,0,0,49.818,0,136.5
	c0,125,188.5,393,188.5,248.029c0-63.515-116.292-39.183-110.64,59.455C281.5,507.5,147.559,678.205,108.5,709.5
	c-69.311,55.534-93,20-93-26c0-45,38.278-63.959,83-25c30.899,26.917,73,95.925,73,146.998c0,98,161,150.34,161,104.002
	c0-55-132.5,70-132.5,209c0,64.934,0,81.5,0,81.5"/>
</svg>
