<?xml version="1.0" encoding="utf-8"?>
<!-- Generator: Adobe Illustrator 16.0.0, SVG Export Plug-In . SVG Version: 6.00 Build 0)  -->
<!DOCTYPE svg PUBLIC "-//W3C//DTD SVG 1.1//EN" "http://www.w3.org/Graphics/SVG/1.1/DTD/svg11.dtd">
<svg version="1.1" id="Layer_1" xmlns="http://www.w3.org/2000/svg" xmlns:xlink="http://www.w3.org/1999/xlink" x="0px" y="0px"
	 width="400px" height="1200px" viewBox="0 0 400 1200" enable-background="new 0 0 400 1200" xml:space="preserve">
<path fill="none" stroke="#231F20" stroke-miterlimit="10" d="M200,0c0,68.5,4.32,102.586-10,148
	c-15.922,50.494-63.139,76.481-101.123,111.002c-19.138,17.394-79.607,65.274-34.263,84.786
	c42.898,18.458,64.637-21.205,92.751-47.315c19.73-18.325-3.865,17.027,0.135,24.027c6.703,11.729,17.042-13.5,23.021-9.5
	S152.5,343.5,158.5,346.5s20.639-28.072,25.57-24.852c4.34,2.834-4.987,18.835-6.57,27.352c-1.127,6.064,4.543,8.409,8.885-0.832
	c6.844-14.565,24.072-46.271,31.879-44.274C226.5,306,216,318.5,220.5,325s34.826-13.224,29.148,11.637
	c-4.95,21.674-23.867,36.318-40.447,49.134C167.189,418.244,149.157,465.374,115.5,506c-22.33,26.954-42.069,51.627-46.522,86.232
	c-2.31,17.947-1.141,36.089,4.617,53.307c11.633,34.788,39.6,64.218,73.02,78.949c34.757,15.322,71.596,11.116,108.331,14.685
	c19.377,1.882,56.681,12.308,41.317,39.438c-27.717,48.936-92.129,16.88-133.424,14.804c-20.186-1.015-66.204-8.12-57.948,4.928
	c2.411,3.81,16.531,5.989,20.849,7.109c5.889,1.527,34.926,2.778,30.279,13.807c-2.635,6.253-45.126-1.606-30.919,9.146
	c3.216,2.434,14.162-0.248,15.302,4.859c1.563,7-12.58,5.911-15.852,5.86c-11.509-0.182-18.262-1.025-23.894,10.945
	c-12.424,26.41,17.058,46.68,29.068,52.934C147,912,200.848,918.99,217.179,919.63s39.96-1.55,43.141,3.66
	s-22.272,5.843-18.046,10.776s22.648-0.938,26.938,4.248s-40.303,5.832-30.007,14.259s76.775-4.656,61.433,19.467
	c-12.05,18.943-36.48,23.903-55.706,32.231c-20.772,8.998-34.721,23.76-40.699,45.908c-8.106,30.032,5.776,48.641,5.776,79.489
	c0,25-10.008,27.831-10.008,70.331"/>
</svg>
