<?xml version="1.0" encoding="utf-8"?>
<!-- Generator: Adobe Illustrator 16.0.0, SVG Export Plug-In . SVG Version: 6.00 Build 0)  -->
<!DOCTYPE svg PUBLIC "-//W3C//DTD SVG 1.1//EN" "http://www.w3.org/Graphics/SVG/1.1/DTD/svg11.dtd">
<svg version="1.1" id="Layer_1" xmlns="http://www.w3.org/2000/svg" xmlns:xlink="http://www.w3.org/1999/xlink" x="0px" y="0px"
	 width="400px" height="1200px" viewBox="0 0 400 1200" enable-background="new 0 0 400 1200" xml:space="preserve">
<path fill="none" stroke="#231F20" stroke-miterlimit="10" d="M200,0c0,60.5,7.671,65.06,7.5,83.5c-0.131,14.114-14,22.866-14,37
	c0,19.262,12.84,22.807,11,41c-1.57,15.533-16.537,33.53-53.43,47.749c-21.379,8.24-43.245,1.6-70.297,8.6
	c-11.659,3.017-37.32,15.145-47.273,14.651s-18.116,0.896-18.116-12.052S57.618,226.085,71.5,230.5
	c16.313,5.188,47.208,8.295,95.963-5.146c21.084-5.813,58.752-10.109,77.886,5.844C268.5,250.5,292.5,239.5,292.5,269.5
	c0,29-27.881,30.529-15,68c0,0,139.896,213.903,9.948,185.952c-18.797-4.043-46.977-1.791-60.245,13.021
	c-12.79,14.277-17.997,35.361-22.48,53.475c-4.37,17.655-5.35,45.955-25.422,52.106c-8.558,2.623-21.672-1.588-28.582-4.784
	c-11.791-5.454-15.799-12.551-23.968-21.825c-18.049-20.493-42.551-35.324-68.271-31.723S10.206,606.769,10.206,651.5
	c0,45,20.876,67.916,45.734,67.916s38.265-18.373,43.438-37.302c5.789-21.185,17.93-33.599,41.972-33.614
	c17.119-0.011,41.998,4.089,48.874,20.247c26.278,61.753-7.553,92.082,1.281,175.835c3.589,34.029,37.681,35.184,63.124,43.97
	c20.911,7.222,41.191,6.016,54.873,26.28c5.668,8.396,5.737,17.763-0.804,25.919c-5.356,6.678-18.396,11.746-20.412,19.836
	c-3.617,14.519,14.216,11.578,25.493,9.242c6.971-1.444,15.569,0.088,19.39,6.336c4.553,7.446-0.012,14.408-4.667,20.333
	c-18.333,23.334-48.984,5.021-67,24.002c-18.666,19.666-66.544,12.121-69.667,38.666C188.933,1083.832,200,1144.504,200,1200"/>
</svg>
